<?xml version="1.0" encoding="UTF-8" standalone="no" ?>
<!DOCTYPE svg PUBLIC "-//W3C//DTD SVG 1.1//EN" "http://www.w3.org/Graphics/SVG/1.1/DTD/svg11.dtd">
<svg xmlns="http://www.w3.org/2000/svg" xmlns:xlink="http://www.w3.org/1999/xlink" version="1.1" width="100" height="100" viewBox="0 0 100 100" xml:space="preserve">
<desc>Created with Fabric.js 5.2.4</desc>
<defs>
</defs>
<g transform="matrix(1 0 0 1 50 50)" id="b05cf853-0d54-4c15-b3cc-d6e2e2636189"  >
<rect style="stroke: none; stroke-width: 1; stroke-dasharray: none; stroke-linecap: butt; stroke-dashoffset: 0; stroke-linejoin: miter; stroke-miterlimit: 4; fill: rgb(255,255,255); fill-rule: nonzero; opacity: 1; visibility: hidden;" vector-effect="non-scaling-stroke"  x="-50" y="-50" rx="0" ry="0" width="100" height="100" />
</g>
<g transform="matrix(Infinity NaN NaN Infinity 0 0)" id="692b4825-83c3-49e6-b907-ff38ad435aa5"  >
</g>
<g transform="matrix(0.09 0 0 0.09 50 50)"  >
<g style="" vector-effect="non-scaling-stroke"   >
		<g transform="matrix(0.13 0 0 -0.13 -141.56 -43.69)"  >
<path style="stroke: none; stroke-width: 1; stroke-dasharray: none; stroke-linecap: butt; stroke-dashoffset: 0; stroke-linejoin: miter; stroke-miterlimit: 4; fill: rgb(0,0,0); fill-rule: nonzero; opacity: 1;" vector-effect="non-scaling-stroke"  transform=" translate(-1495.8, -3186.02)" d="M 1469 3224 C 1446 3072 1445 3067 1418 3056 C 1391 3044 1391 3044 1408 3020 C 1423 2997 1432 2995 1497 2995 C 1564 2995 1570 2997 1585 3022 C 1600 3049 1600 3050 1576 3056 C 1548 3063 1550 3057 1520 3244 C 1509 3316 1498 3375 1496 3377 C 1495 3379 1483 3310 1469 3224 z" stroke-linecap="round" />
</g>
		<g transform="matrix(0.13 0 0 -0.13 -187.83 -18.87)"  >
<path style="stroke: none; stroke-width: 1; stroke-dasharray: none; stroke-linecap: butt; stroke-dashoffset: 0; stroke-linejoin: miter; stroke-miterlimit: 4; fill: rgb(0,0,0); fill-rule: nonzero; opacity: 1;" vector-effect="non-scaling-stroke"  transform=" translate(-1148.81, -2999.88)" d="M 1060 3059 C 1106 2996 1150 2937 1158 2927 C 1171 2912 1172 2905 1162 2890 C 1144 2861 1147 2853 1176 2847 C 1196 2843 1210 2852 1250 2894 C 1298 2943 1312 2981 1290 2995 C 1284 2999 1273 2996 1265 2990 C 1248 2976 1251 2975 1135 3060 C 964 3185 969 3185 1060 3059 z" stroke-linecap="round" />
</g>
		<g transform="matrix(0.13 0 0 -0.13 59.86 10.64)"  >
<path style="stroke: none; stroke-width: 1; stroke-dasharray: none; stroke-linecap: butt; stroke-dashoffset: 0; stroke-linejoin: miter; stroke-miterlimit: 4; fill: rgb(0,0,0); fill-rule: nonzero; opacity: 1;" vector-effect="non-scaling-stroke"  transform=" translate(-3006.47, -2778.51)" d="M 2860 2787 C 2781 2643 2715 2522 2713 2518 C 2709 2510 2890 2696 2961 2774 L 3006 2822 L 3067 2753 L 3128 2685 L 3068 2683 C 2990 2681 2931 2665 2894 2634 L 2865 2610 L 2893 2620 C 2978 2650 3132 2619 3238 2550 L 3300 2510 L 3284 2543 C 3264 2581 3009 3044 3006 3047 C 3005 3049 2939 2932 2860 2787 z" stroke-linecap="round" />
</g>
		<g transform="matrix(0.13 0 0 -0.13 -126.62 -5.23)"  >
<path style="stroke: none; stroke-width: 1; stroke-dasharray: none; stroke-linecap: butt; stroke-dashoffset: 0; stroke-linejoin: miter; stroke-miterlimit: 4; fill: rgb(0,0,0); fill-rule: nonzero; opacity: 1;" vector-effect="non-scaling-stroke"  transform=" translate(-1607.82, -2897.6)" d="M 1440 2974 C 1440 2969 1449 2951 1459 2933 C 1478 2902 1481 2902 1533 2907 C 1606 2914 1684 2890 1740 2843 C 1782 2807 1783 2807 1763 2835 C 1726 2887 1677 2928 1625 2951 C 1574 2973 1440 2990 1440 2974 z" stroke-linecap="round" />
</g>
		<g transform="matrix(0.13 0 0 -0.13 -174.15 9.58)"  >
<path style="stroke: none; stroke-width: 1; stroke-dasharray: none; stroke-linecap: butt; stroke-dashoffset: 0; stroke-linejoin: miter; stroke-miterlimit: 4; fill: rgb(0,0,0); fill-rule: nonzero; opacity: 1;" vector-effect="non-scaling-stroke"  transform=" translate(-1251.37, -2786.46)" d="M 1263 2877 C 1217 2831 1185 2767 1174 2702 L 1167 2660 L 1222 2660 L 1277 2660 L 1284 2698 C 1287 2718 1301 2752 1315 2772 C 1339 2807 1340 2813 1329 2857 C 1322 2884 1314 2908 1311 2912 C 1307 2917 1285 2901 1263 2877 z" stroke-linecap="round" />
</g>
		<g transform="matrix(0.13 0 0 -0.13 -50.68 20.78)"  >
<path style="stroke: none; stroke-width: 1; stroke-dasharray: none; stroke-linecap: butt; stroke-dashoffset: 0; stroke-linejoin: miter; stroke-miterlimit: 4; fill: rgb(0,0,0); fill-rule: nonzero; opacity: 1;" vector-effect="non-scaling-stroke"  transform=" translate(-2177.39, -2702.5)" d="M 2113 2859 C 2189 2837 2241 2757 2244 2658 C 2245 2613 2240 2595 2221 2568 L 2197 2535 L 2225 2560 C 2281 2610 2296 2699 2261 2776 C 2238 2827 2184 2861 2122 2866 L 2075 2870 L 2113 2859 z" stroke-linecap="round" />
</g>
		<g transform="matrix(0.13 0 0 -0.13 -12.81 21.78)"  >
<path style="stroke: none; stroke-width: 1; stroke-dasharray: none; stroke-linecap: butt; stroke-dashoffset: 0; stroke-linejoin: miter; stroke-miterlimit: 4; fill: rgb(0,0,0); fill-rule: nonzero; opacity: 1;" vector-effect="non-scaling-stroke"  transform=" translate(-2461.44, -2695)" d="M 2338 2858 C 2346 2850 2350 2799 2350 2695 C 2350 2591 2346 2540 2338 2532 C 2329 2523 2333 2520 2360 2520 C 2391 2520 2392 2521 2377 2538 C 2363 2553 2360 2580 2360 2690 L 2360 2823 L 2475 2670 C 2579 2531 2590 2520 2590 2548 C 2590 2595 2386 2869 2351 2870 C 2331 2870 2329 2867 2338 2858 z" stroke-linecap="round" />
</g>
		<g transform="matrix(0.13 0 0 -0.13 2.88 1.3)"  >
<path style="stroke: none; stroke-width: 1; stroke-dasharray: none; stroke-linecap: butt; stroke-dashoffset: 0; stroke-linejoin: miter; stroke-miterlimit: 4; fill: rgb(0,0,0); fill-rule: nonzero; opacity: 1;" vector-effect="non-scaling-stroke"  transform=" translate(-2579.11, -2848.62)" d="M 2562 2858 C 2571 2851 2580 2839 2582 2831 C 2584 2823 2590 2828 2598 2844 C 2609 2869 2608 2870 2578 2870 C 2551 2870 2548 2868 2562 2858 z" stroke-linecap="round" />
</g>
		<g transform="matrix(0.13 0 0 -0.13 122.33 21.72)"  >
<path style="stroke: none; stroke-width: 1; stroke-dasharray: none; stroke-linecap: butt; stroke-dashoffset: 0; stroke-linejoin: miter; stroke-miterlimit: 4; fill: rgb(0,0,0); fill-rule: nonzero; opacity: 1;" vector-effect="non-scaling-stroke"  transform=" translate(-3475, -2695.41)" d="M 3350 2843 L 3350 2817 L 3373 2838 C 3387 2851 3409 2860 3428 2860 L 3460 2860 L 3460 2702 C 3460 2592 3456 2540 3448 2532 C 3439 2523 3446 2520 3481 2521 C 3505 2521 3519 2524 3513 2527 C 3503 2530 3500 2574 3500 2696 L 3500 2860 L 3530 2860 C 3547 2860 3569 2851 3580 2840 L 3600 2820 L 3600 2845 L 3600 2870 L 3475 2870 L 3350 2870 L 3350 2843 z" stroke-linecap="round" />
</g>
		<g transform="matrix(0.13 0 0 -0.13 161.94 21.85)"  >
<path style="stroke: none; stroke-width: 1; stroke-dasharray: none; stroke-linecap: butt; stroke-dashoffset: 0; stroke-linejoin: miter; stroke-miterlimit: 4; fill: rgb(0,0,0); fill-rule: nonzero; opacity: 1;" vector-effect="non-scaling-stroke"  transform=" translate(-3772.02, -2694.47)" d="M 3650 2851 C 3655 2840 3660 2770 3660 2695 C 3660 2620 3655 2550 3650 2539 C 3640 2522 3643 2520 3674 2520 C 3708 2520 3709 2520 3699 2552 C 3694 2570 3690 2611 3690 2642 L 3690 2700 L 3725 2700 C 3767 2700 3773 2694 3819 2600 C 3848 2540 3860 2524 3880 2521 C 3904 2518 3904 2519 3888 2536 C 3879 2547 3862 2581 3850 2613 C 3825 2680 3787 2710 3728 2710 L 3690 2710 L 3690 2785 L 3690 2860 L 3730 2860 C 3806 2860 3847 2785 3798 2733 C 3770 2703 3796 2701 3828 2730 C 3861 2761 3866 2797 3843 2828 C 3819 2860 3795 2868 3707 2869 C 3643 2870 3640 2869 3650 2851 z" stroke-linecap="round" />
</g>
		<g transform="matrix(0.13 0 0 -0.13 188.33 21.78)"  >
<path style="stroke: none; stroke-width: 1; stroke-dasharray: none; stroke-linecap: butt; stroke-dashoffset: 0; stroke-linejoin: miter; stroke-miterlimit: 4; fill: rgb(0,0,0); fill-rule: nonzero; opacity: 1;" vector-effect="non-scaling-stroke"  transform=" translate(-3970, -2695)" d="M 3938 2858 C 3955 2841 3955 2549 3938 2532 C 3929 2523 3936 2520 3970 2520 C 4004 2520 4011 2523 4002 2532 C 3994 2540 3990 2591 3990 2695 C 3990 2799 3994 2850 4002 2858 C 4011 2867 4004 2870 3970 2870 C 3936 2870 3929 2867 3938 2858 z" stroke-linecap="round" />
</g>
		<g transform="matrix(0.13 0 0 -0.13 215.96 21.74)"  >
<path style="stroke: none; stroke-width: 1; stroke-dasharray: none; stroke-linecap: butt; stroke-dashoffset: 0; stroke-linejoin: miter; stroke-miterlimit: 4; fill: rgb(0,0,0); fill-rule: nonzero; opacity: 1;" vector-effect="non-scaling-stroke"  transform=" translate(-4177.21, -2695.27)" d="M 4068 2858 C 4085 2841 4085 2549 4068 2532 C 4059 2523 4066 2520 4100 2520 C 4134 2520 4141 2523 4132 2532 C 4125 2539 4120 2570 4120 2601 L 4120 2659 L 4158 2663 L 4195 2667 L 4158 2668 L 4120 2670 L 4120 2765 L 4120 2860 L 4154 2860 C 4241 2860 4282 2750 4217 2690 C 4193 2667 4198 2665 4235 2682 C 4265 2695 4290 2737 4290 2772 C 4290 2805 4263 2840 4224 2856 C 4181 2874 4050 2876 4068 2858 z" stroke-linecap="round" />
</g>
		<g transform="matrix(0.13 0 0 -0.13 -66.53 22.38)"  >
<path style="stroke: none; stroke-width: 1; stroke-dasharray: none; stroke-linecap: butt; stroke-dashoffset: 0; stroke-linejoin: miter; stroke-miterlimit: 4; fill: rgb(0,0,0); fill-rule: nonzero; opacity: 1;" vector-effect="non-scaling-stroke"  transform=" translate(-2058.53, -2690.46)" d="M 1995 2817 C 1961 2783 1950 2765 1945 2726 C 1926 2604 2001 2518 2122 2521 L 2175 2523 L 2130 2529 C 2068 2538 2035 2563 2005 2623 C 1961 2711 1976 2811 2038 2844 C 2053 2853 2059 2859 2051 2860 C 2044 2860 2018 2841 1995 2817 z" stroke-linecap="round" />
</g>
		<g transform="matrix(0.13 0 0 -0.13 -209.14 20.19)"  >
<path style="stroke: none; stroke-width: 1; stroke-dasharray: none; stroke-linecap: butt; stroke-dashoffset: 0; stroke-linejoin: miter; stroke-miterlimit: 4; fill: rgb(0,0,0); fill-rule: nonzero; opacity: 1;" vector-effect="non-scaling-stroke"  transform=" translate(-988.94, -2706.95)" d="M 1100 2740 C 1100 2712 1087 2707 950 2684 L 825 2663 L 986 2661 L 1148 2660 L 1152 2694 C 1155 2722 1151 2730 1128 2743 C 1102 2758 1100 2758 1100 2740 z" stroke-linecap="round" />
</g>
		<g transform="matrix(0.13 0 0 -0.13 -125.26 36.78)"  >
<path style="stroke: none; stroke-width: 1; stroke-dasharray: none; stroke-linecap: butt; stroke-dashoffset: 0; stroke-linejoin: miter; stroke-miterlimit: 4; fill: rgb(0,0,0); fill-rule: nonzero; opacity: 1;" vector-effect="non-scaling-stroke"  transform=" translate(-1618.03, -2582.5)" d="M 1420 2685 C 1420 2683 1448 2635 1482 2578 L 1544 2475 L 1553 2510 L 1561 2545 L 1690 2580 C 1761 2598 1818 2615 1816 2617 C 1812 2621 1450 2690 1433 2690 C 1426 2690 1420 2688 1420 2685 z" stroke-linecap="round" />
</g>
		<g transform="matrix(0.13 0 0 -0.13 -50.05 65.72)"  >
<path style="stroke: none; stroke-width: 1; stroke-dasharray: none; stroke-linecap: butt; stroke-dashoffset: 0; stroke-linejoin: miter; stroke-miterlimit: 4; fill: rgb(0,0,0); fill-rule: nonzero; opacity: 1;" vector-effect="non-scaling-stroke"  transform=" translate(-2182.15, -2365.43)" d="M 2160 2365 C 2160 2344 2165 2340 2188 2341 C 2207 2342 2209 2344 2196 2347 C 2181 2351 2180 2354 2191 2361 C 2203 2368 2203 2370 2190 2370 C 2177 2370 2177 2371 2190 2380 C 2202 2388 2201 2390 2183 2390 C 2165 2390 2160 2384 2160 2365 z" stroke-linecap="round" />
</g>
		<g transform="matrix(0.13 0 0 -0.13 -39 65.85)"  >
<path style="stroke: none; stroke-width: 1; stroke-dasharray: none; stroke-linecap: butt; stroke-dashoffset: 0; stroke-linejoin: miter; stroke-miterlimit: 4; fill: rgb(0,0,0); fill-rule: nonzero; opacity: 1;" vector-effect="non-scaling-stroke"  transform=" translate(-2265, -2364.47)" d="M 2245 2366 C 2245 2351 2252 2345 2269 2343 C 2285 2342 2289 2345 2281 2353 C 2275 2359 2274 2368 2279 2374 C 2285 2381 2281 2385 2267 2386 C 2251 2387 2245 2382 2245 2366 z" stroke-linecap="round" />
</g>
		<g transform="matrix(0.13 0 0 -0.13 -27.74 65.62)"  >
<path style="stroke: none; stroke-width: 1; stroke-dasharray: none; stroke-linecap: butt; stroke-dashoffset: 0; stroke-linejoin: miter; stroke-miterlimit: 4; fill: rgb(0,0,0); fill-rule: nonzero; opacity: 1;" vector-effect="non-scaling-stroke"  transform=" translate(-2349.46, -2366.19)" d="M 2320 2364 C 2320 2348 2325 2340 2333 2343 C 2339 2345 2344 2354 2342 2364 C 2339 2383 2356 2386 2363 2368 C 2365 2361 2371 2358 2375 2362 C 2387 2374 2370 2390 2344 2390 C 2325 2390 2320 2385 2320 2364 z" stroke-linecap="round" />
</g>
		<g transform="matrix(0.13 0 0 -0.13 -17.28 65.72)"  >
<path style="stroke: none; stroke-width: 1; stroke-dasharray: none; stroke-linecap: butt; stroke-dashoffset: 0; stroke-linejoin: miter; stroke-miterlimit: 4; fill: rgb(0,0,0); fill-rule: nonzero; opacity: 1;" vector-effect="non-scaling-stroke"  transform=" translate(-2427.88, -2365.45)" d="M 2410 2365 C 2410 2346 2415 2340 2433 2341 C 2445 2341 2449 2344 2443 2347 C 2436 2349 2430 2360 2430 2371 C 2430 2381 2426 2390 2420 2390 C 2415 2390 2410 2379 2410 2365 z" stroke-linecap="round" />
</g>
		<g transform="matrix(0.13 0 0 -0.13 -5.27 65.82)"  >
<path style="stroke: none; stroke-width: 1; stroke-dasharray: none; stroke-linecap: butt; stroke-dashoffset: 0; stroke-linejoin: miter; stroke-miterlimit: 4; fill: rgb(0,0,0); fill-rule: nonzero; opacity: 1;" vector-effect="non-scaling-stroke"  transform=" translate(-2518, -2364.72)" d="M 2494 2375 C 2486 2356 2497 2340 2520 2340 C 2542 2340 2553 2363 2537 2379 C 2522 2394 2500 2393 2494 2375 z M 2525 2371 C 2528 2366 2526 2359 2520 2355 C 2515 2352 2510 2356 2510 2364 C 2510 2382 2516 2385 2525 2371 z" stroke-linecap="round" />
</g>
		<g transform="matrix(0.13 0 0 -0.13 6.21 65.58)"  >
<path style="stroke: none; stroke-width: 1; stroke-dasharray: none; stroke-linecap: butt; stroke-dashoffset: 0; stroke-linejoin: miter; stroke-miterlimit: 4; fill: rgb(0,0,0); fill-rule: nonzero; opacity: 1;" vector-effect="non-scaling-stroke"  transform=" translate(-2604.07, -2366.5)" d="M 2580 2366 C 2580 2348 2585 2343 2603 2343 C 2620 2343 2626 2349 2628 2366 C 2629 2385 2625 2390 2605 2390 C 2585 2390 2580 2385 2580 2366 z" stroke-linecap="round" />
</g>
		<g transform="matrix(0.13 0 0 -0.13 17.95 65.72)"  >
<path style="stroke: none; stroke-width: 1; stroke-dasharray: none; stroke-linecap: butt; stroke-dashoffset: 0; stroke-linejoin: miter; stroke-miterlimit: 4; fill: rgb(0,0,0); fill-rule: nonzero; opacity: 1;" vector-effect="non-scaling-stroke"  transform=" translate(-2692.15, -2365.43)" d="M 2670 2365 C 2670 2344 2675 2340 2698 2341 C 2717 2342 2719 2344 2706 2347 C 2691 2351 2690 2354 2701 2361 C 2713 2368 2713 2370 2700 2370 C 2687 2370 2687 2371 2700 2380 C 2712 2388 2711 2390 2693 2390 C 2675 2390 2670 2384 2670 2365 z" stroke-linecap="round" />
</g>
		<g transform="matrix(0.13 0 0 -0.13 34.42 65.81)"  >
<path style="stroke: none; stroke-width: 1; stroke-dasharray: none; stroke-linecap: butt; stroke-dashoffset: 0; stroke-linejoin: miter; stroke-miterlimit: 4; fill: rgb(0,0,0); fill-rule: nonzero; opacity: 1;" vector-effect="non-scaling-stroke"  transform=" translate(-2815.63, -2364.8)" d="M 2798 2365 C 2803 2336 2820 2331 2820 2359 C 2820 2370 2826 2381 2833 2383 C 2839 2386 2833 2389 2819 2389 C 2796 2390 2793 2387 2798 2365 z" stroke-linecap="round" />
</g>
		<g transform="matrix(0.13 0 0 -0.13 45 65.76)"  >
<path style="stroke: none; stroke-width: 1; stroke-dasharray: none; stroke-linecap: butt; stroke-dashoffset: 0; stroke-linejoin: miter; stroke-miterlimit: 4; fill: rgb(0,0,0); fill-rule: nonzero; opacity: 1;" vector-effect="non-scaling-stroke"  transform=" translate(-2895, -2365.12)" d="M 2870 2365 C 2870 2339 2885 2331 2893 2353 C 2897 2363 2899 2363 2899 2353 C 2901 2329 2920 2340 2920 2365 C 2920 2391 2905 2399 2897 2378 C 2893 2368 2891 2368 2891 2378 C 2889 2401 2870 2390 2870 2365 z" stroke-linecap="round" />
</g>
		<g transform="matrix(0.13 0 0 -0.13 56.3 65.84)"  >
<path style="stroke: none; stroke-width: 1; stroke-dasharray: none; stroke-linecap: butt; stroke-dashoffset: 0; stroke-linejoin: miter; stroke-miterlimit: 4; fill: rgb(0,0,0); fill-rule: nonzero; opacity: 1;" vector-effect="non-scaling-stroke"  transform=" translate(-2979.76, -2364.55)" d="M 2960 2365 C 2960 2346 2965 2340 2983 2340 C 3001 2340 3002 2342 2990 2350 C 2977 2359 2977 2360 2990 2360 C 3002 2360 3003 2362 2991 2369 C 2980 2376 2980 2378 2991 2383 C 2999 2386 2995 2389 2983 2389 C 2965 2390 2960 2384 2960 2365 z" stroke-linecap="round" />
</g>
		<g transform="matrix(0.13 0 0 -0.13 74.33 65.78)"  >
<path style="stroke: none; stroke-width: 1; stroke-dasharray: none; stroke-linecap: butt; stroke-dashoffset: 0; stroke-linejoin: miter; stroke-miterlimit: 4; fill: rgb(0,0,0); fill-rule: nonzero; opacity: 1;" vector-effect="non-scaling-stroke"  transform=" translate(-3115, -2365)" d="M 3080 2376 C 3080 2360 3107 2347 3121 2356 C 3126 2359 3130 2356 3130 2351 C 3130 2345 3135 2340 3140 2340 C 3146 2340 3150 2351 3150 2365 C 3150 2381 3144 2390 3135 2390 C 3127 2390 3120 2385 3120 2378 C 3120 2369 3117 2369 3108 2378 C 3092 2394 3080 2393 3080 2376 z" stroke-linecap="round" />
</g>
		<g transform="matrix(0.13 0 0 -0.13 86.17 65.55)"  >
<path style="stroke: none; stroke-width: 1; stroke-dasharray: none; stroke-linecap: butt; stroke-dashoffset: 0; stroke-linejoin: miter; stroke-miterlimit: 4; fill: rgb(0,0,0); fill-rule: nonzero; opacity: 1;" vector-effect="non-scaling-stroke"  transform=" translate(-3203.77, -2366.75)" d="M 3196 2381 C 3192 2376 3196 2369 3202 2367 C 3210 2364 3208 2361 3198 2361 C 3170 2360 3177 2345 3206 2344 C 3225 2342 3230 2346 3226 2357 C 3223 2365 3220 2376 3220 2381 C 3220 2393 3203 2393 3196 2381 z" stroke-linecap="round" />
</g>
		<g transform="matrix(0.13 0 0 -0.13 97.76 65.78)"  >
<path style="stroke: none; stroke-width: 1; stroke-dasharray: none; stroke-linecap: butt; stroke-dashoffset: 0; stroke-linejoin: miter; stroke-miterlimit: 4; fill: rgb(0,0,0); fill-rule: nonzero; opacity: 1;" vector-effect="non-scaling-stroke"  transform=" translate(-3290.71, -2365)" d="M 3271 2381 C 3250 2368 3266 2340 3295 2340 C 3309 2340 3320 2345 3320 2351 C 3320 2357 3311 2359 3300 2355 C 3275 2347 3273 2365 3298 2379 C 3311 2387 3312 2389 3300 2390 C 3292 2390 3279 2386 3271 2381 z" stroke-linecap="round" />
</g>
		<g transform="matrix(0.13 0 0 -0.13 107 65.78)"  >
<path style="stroke: none; stroke-width: 1; stroke-dasharray: none; stroke-linecap: butt; stroke-dashoffset: 0; stroke-linejoin: miter; stroke-miterlimit: 4; fill: rgb(0,0,0); fill-rule: nonzero; opacity: 1;" vector-effect="non-scaling-stroke"  transform=" translate(-3360, -2365)" d="M 3350 2365 C 3350 2351 3355 2340 3360 2340 C 3366 2340 3370 2351 3370 2365 C 3370 2379 3366 2390 3360 2390 C 3355 2390 3350 2379 3350 2365 z" stroke-linecap="round" />
</g>
		<g transform="matrix(0.13 0 0 -0.13 117 65.72)"  >
<path style="stroke: none; stroke-width: 1; stroke-dasharray: none; stroke-linecap: butt; stroke-dashoffset: 0; stroke-linejoin: miter; stroke-miterlimit: 4; fill: rgb(0,0,0); fill-rule: nonzero; opacity: 1;" vector-effect="non-scaling-stroke"  transform=" translate(-3434.97, -2365.47)" d="M 3414 2375 C 3406 2354 3418 2340 3443 2341 C 3464 2341 3464 2342 3440 2351 C 3416 2361 3416 2362 3434 2376 C 3452 2388 3452 2390 3437 2390 C 3427 2390 3417 2383 3414 2375 z" stroke-linecap="round" />
</g>
		<g transform="matrix(0.13 0 0 -0.13 128.3 65.53)"  >
<path style="stroke: none; stroke-width: 1; stroke-dasharray: none; stroke-linecap: butt; stroke-dashoffset: 0; stroke-linejoin: miter; stroke-miterlimit: 4; fill: rgb(0,0,0); fill-rule: nonzero; opacity: 1;" vector-effect="non-scaling-stroke"  transform=" translate(-3519.78, -2366.88)" d="M 3514 2374 C 3517 2366 3516 2361 3511 2364 C 3506 2367 3500 2364 3497 2357 C 3494 2349 3503 2345 3520 2344 C 3546 2343 3547 2345 3538 2366 C 3526 2392 3504 2400 3514 2374 z" stroke-linecap="round" />
</g>
		<g transform="matrix(0.13 0 0 -0.13 138.72 65.72)"  >
<path style="stroke: none; stroke-width: 1; stroke-dasharray: none; stroke-linecap: butt; stroke-dashoffset: 0; stroke-linejoin: miter; stroke-miterlimit: 4; fill: rgb(0,0,0); fill-rule: nonzero; opacity: 1;" vector-effect="non-scaling-stroke"  transform=" translate(-3597.88, -2365.45)" d="M 3580 2365 C 3580 2346 3585 2340 3603 2341 C 3615 2341 3619 2344 3613 2347 C 3606 2349 3600 2360 3600 2371 C 3600 2381 3596 2390 3590 2390 C 3585 2390 3580 2379 3580 2365 z" stroke-linecap="round" />
</g>
		<g transform="matrix(0.13 0 0 -0.13 155.67 65.73)"  >
<path style="stroke: none; stroke-width: 1; stroke-dasharray: none; stroke-linecap: butt; stroke-dashoffset: 0; stroke-linejoin: miter; stroke-miterlimit: 4; fill: rgb(0,0,0); fill-rule: nonzero; opacity: 1;" vector-effect="non-scaling-stroke"  transform=" translate(-3725, -2365.36)" d="M 3700 2365 C 3700 2334 3720 2332 3721 2363 C 3721 2375 3724 2379 3727 2373 C 3734 2355 3750 2357 3750 2375 C 3750 2384 3741 2390 3725 2390 C 3705 2390 3700 2385 3700 2365 z" stroke-linecap="round" />
</g>
		<g transform="matrix(0.13 0 0 -0.13 165.9 65.72)"  >
<path style="stroke: none; stroke-width: 1; stroke-dasharray: none; stroke-linecap: butt; stroke-dashoffset: 0; stroke-linejoin: miter; stroke-miterlimit: 4; fill: rgb(0,0,0); fill-rule: nonzero; opacity: 1;" vector-effect="non-scaling-stroke"  transform=" translate(-3801.73, -2365.43)" d="M 3780 2365 C 3780 2344 3785 2340 3808 2341 C 3824 2342 3828 2344 3818 2347 C 3808 2349 3800 2360 3800 2371 C 3800 2381 3796 2390 3790 2390 C 3785 2390 3780 2379 3780 2365 z" stroke-linecap="round" />
</g>
		<g transform="matrix(0.13 0 0 -0.13 177.15 65.93)"  >
<path style="stroke: none; stroke-width: 1; stroke-dasharray: none; stroke-linecap: butt; stroke-dashoffset: 0; stroke-linejoin: miter; stroke-miterlimit: 4; fill: rgb(0,0,0); fill-rule: nonzero; opacity: 1;" vector-effect="non-scaling-stroke"  transform=" translate(-3886.1, -2363.89)" d="M 3876 2382 C 3872 2375 3872 2370 3877 2370 C 3881 2370 3878 2365 3870 2360 C 3861 2354 3860 2350 3867 2350 C 3873 2350 3885 2347 3894 2344 C 3914 2336 3915 2350 3897 2375 C 3887 2387 3881 2389 3876 2382 z" stroke-linecap="round" />
</g>
		<g transform="matrix(0.13 0 0 -0.13 187.59 65.72)"  >
<path style="stroke: none; stroke-width: 1; stroke-dasharray: none; stroke-linecap: butt; stroke-dashoffset: 0; stroke-linejoin: miter; stroke-miterlimit: 4; fill: rgb(0,0,0); fill-rule: nonzero; opacity: 1;" vector-effect="non-scaling-stroke"  transform=" translate(-3964.46, -2365.43)" d="M 3953 2383 C 3933 2375 3938 2352 3961 2345 C 3972 2341 3984 2341 3987 2344 C 3991 2347 3986 2350 3977 2350 C 3955 2350 3955 2366 3978 2379 C 3991 2387 3992 2389 3980 2389 C 3972 2389 3959 2386 3953 2383 z" stroke-linecap="round" />
</g>
		<g transform="matrix(0.13 0 0 -0.13 199.29 65.72)"  >
<path style="stroke: none; stroke-width: 1; stroke-dasharray: none; stroke-linecap: butt; stroke-dashoffset: 0; stroke-linejoin: miter; stroke-miterlimit: 4; fill: rgb(0,0,0); fill-rule: nonzero; opacity: 1;" vector-effect="non-scaling-stroke"  transform=" translate(-4052.15, -2365.43)" d="M 4030 2365 C 4030 2344 4035 2340 4058 2341 C 4077 2342 4079 2344 4066 2347 C 4051 2351 4050 2354 4061 2361 C 4073 2368 4073 2370 4060 2370 C 4047 2370 4047 2371 4060 2380 C 4072 2388 4071 2390 4053 2390 C 4035 2390 4030 2384 4030 2365 z" stroke-linecap="round" />
</g>
		<g transform="matrix(0.13 0 0 -0.13 210.32 65.78)"  >
<path style="stroke: none; stroke-width: 1; stroke-dasharray: none; stroke-linecap: butt; stroke-dashoffset: 0; stroke-linejoin: miter; stroke-miterlimit: 4; fill: rgb(0,0,0); fill-rule: nonzero; opacity: 1;" vector-effect="non-scaling-stroke"  transform=" translate(-4134.88, -2365)" d="M 4115 2380 C 4112 2374 4116 2367 4125 2364 C 4138 2358 4139 2356 4128 2349 C 4118 2342 4119 2340 4132 2340 C 4155 2340 4165 2359 4145 2366 C 4132 2372 4131 2374 4142 2381 C 4152 2388 4151 2390 4138 2390 C 4129 2390 4118 2385 4115 2380 z" stroke-linecap="round" />
</g>
</g>
</g>
</svg>