<?xml version="1.0" standalone="no"?>
<!DOCTYPE svg PUBLIC "-//W3C//DTD SVG 20010904//EN"
 "http://www.w3.org/TR/2001/REC-SVG-20010904/DTD/svg10.dtd">
<svg version="1.0" xmlns="http://www.w3.org/2000/svg"
 width="500.000000pt" height="500.000000pt" viewBox="0 0 500.000000 500.000000"
 preserveAspectRatio="xMidYMid meet">

<g transform="translate(0.000000,500.000000) scale(0.100000,-0.100000)"
fill="#000000" stroke="none">
<path d="M1469 3224 c-23 -152 -24 -157 -51 -168 -27 -12 -27 -12 -10 -36 15
-23 24 -25 89 -25 67 0 73 2 88 27 15 27 15 28 -9 34 -28 7 -26 1 -56 188 -11
72 -22 131 -24 133 -1 2 -13 -67 -27 -153z"/>
<path d="M1060 3059 c46 -63 90 -122 98 -132 13 -15 14 -22 4 -37 -18 -29 -15
-37 14 -43 20 -4 34 5 74 47 48 49 62 87 40 101 -6 4 -17 1 -25 -5 -17 -14
-14 -15 -130 70 -171 125 -166 125 -75 -1z"/>
<path d="M2860 2787 c-79 -144 -145 -265 -147 -269 -4 -8 177 178 248 256 l45
48 61 -69 61 -68 -60 -2 c-78 -2 -137 -18 -174 -49 l-29 -24 28 10 c85 30 239
-1 345 -70 l62 -40 -16 33 c-20 38 -275 501 -278 504 -1 2 -67 -115 -146 -260z"/>
<path d="M1440 2974 c0 -5 9 -23 19 -41 19 -31 22 -31 74 -26 73 7 151 -17
207 -64 42 -36 43 -36 23 -8 -37 52 -86 93 -138 116 -51 22 -185 39 -185 23z"/>
<path d="M1263 2877 c-46 -46 -78 -110 -89 -175 l-7 -42 55 0 55 0 7 38 c3 20
17 54 31 74 24 35 25 41 14 85 -7 27 -15 51 -18 55 -4 5 -26 -11 -48 -35z"/>
<path d="M2113 2859 c76 -22 128 -102 131 -201 1 -45 -4 -63 -23 -90 l-24 -33
28 25 c56 50 71 139 36 216 -23 51 -77 85 -139 90 l-47 4 38 -11z"/>
<path d="M2338 2858 c8 -8 12 -59 12 -163 0 -104 -4 -155 -12 -163 -9 -9 -5
-12 22 -12 31 0 32 1 17 18 -14 15 -17 42 -17 152 l0 133 115 -153 c104 -139
115 -150 115 -122 0 47 -204 321 -239 322 -20 0 -22 -3 -13 -12z"/>
<path d="M2562 2858 c9 -7 18 -19 20 -27 2 -8 8 -3 16 13 11 25 10 26 -20 26
-27 0 -30 -2 -16 -12z"/>
<path d="M3350 2843 l0 -26 23 21 c14 13 36 22 55 22 l32 0 0 -158 c0 -110 -4
-162 -12 -170 -9 -9 -2 -12 33 -11 24 0 38 3 32 6 -10 3 -13 47 -13 169 l0
164 30 0 c17 0 39 -9 50 -20 l20 -20 0 25 0 25 -125 0 -125 0 0 -27z"/>
<path d="M3650 2851 c5 -11 10 -81 10 -156 0 -75 -5 -145 -10 -156 -10 -17 -7
-19 24 -19 34 0 35 0 25 32 -5 18 -9 59 -9 90 l0 58 35 0 c42 0 48 -6 94 -100
29 -60 41 -76 61 -79 24 -3 24 -2 8 15 -9 11 -26 45 -38 77 -25 67 -63 97
-122 97 l-38 0 0 75 0 75 40 0 c76 0 117 -75 68 -127 -28 -30 -2 -32 30 -3 33
31 38 67 15 98 -24 32 -48 40 -136 41 -64 1 -67 0 -57 -18z"/>
<path d="M3938 2858 c17 -17 17 -309 0 -326 -9 -9 -2 -12 32 -12 34 0 41 3 32
12 -8 8 -12 59 -12 163 0 104 4 155 12 163 9 9 2 12 -32 12 -34 0 -41 -3 -32
-12z"/>
<path d="M4068 2858 c17 -17 17 -309 0 -326 -9 -9 -2 -12 32 -12 34 0 41 3 32
12 -7 7 -12 38 -12 69 l0 58 38 4 37 4 -37 1 -38 2 0 95 0 95 34 0 c87 0 128
-110 63 -170 -24 -23 -19 -25 18 -8 30 13 55 55 55 90 0 33 -27 68 -66 84 -43
18 -174 20 -156 2z"/>
<path d="M1995 2817 c-34 -34 -45 -52 -50 -91 -19 -122 56 -208 177 -205 l53
2 -45 6 c-62 9 -95 34 -125 94 -44 88 -29 188 33 221 15 9 21 15 13 16 -7 0
-33 -19 -56 -43z"/>
<path d="M1100 2740 c0 -28 -13 -33 -150 -56 l-125 -21 161 -2 162 -1 4 34 c3
28 -1 36 -24 49 -26 15 -28 15 -28 -3z"/>
<path d="M1420 2685 c0 -2 28 -50 62 -107 l62 -103 9 35 8 35 129 35 c71 18
128 35 126 37 -4 4 -366 73 -383 73 -7 0 -13 -2 -13 -5z"/>
<path d="M2160 2365 c0 -21 5 -25 28 -24 19 1 21 3 8 6 -15 4 -16 7 -5 14 12
7 12 9 -1 9 -13 0 -13 1 0 10 12 8 11 10 -7 10 -18 0 -23 -6 -23 -25z"/>
<path d="M2245 2366 c0 -15 7 -21 24 -23 16 -1 20 2 12 10 -6 6 -7 15 -2 21 6
7 2 11 -12 12 -16 1 -22 -4 -22 -20z"/>
<path d="M2320 2364 c0 -16 5 -24 13 -21 6 2 11 11 9 21 -3 19 14 22 21 4 2
-7 8 -10 12 -6 12 12 -5 28 -31 28 -19 0 -24 -5 -24 -26z"/>
<path d="M2410 2365 c0 -19 5 -25 23 -24 12 0 16 3 10 6 -7 2 -13 13 -13 24 0
10 -4 19 -10 19 -5 0 -10 -11 -10 -25z"/>
<path d="M2494 2375 c-8 -19 3 -35 26 -35 22 0 33 23 17 39 -15 15 -37 14 -43
-4z m31 -4 c3 -5 1 -12 -5 -16 -5 -3 -10 1 -10 9 0 18 6 21 15 7z"/>
<path d="M2580 2366 c0 -18 5 -23 23 -23 17 0 23 6 25 23 1 19 -3 24 -23 24
-20 0 -25 -5 -25 -24z"/>
<path d="M2670 2365 c0 -21 5 -25 28 -24 19 1 21 3 8 6 -15 4 -16 7 -5 14 12
7 12 9 -1 9 -13 0 -13 1 0 10 12 8 11 10 -7 10 -18 0 -23 -6 -23 -25z"/>
<path d="M2798 2365 c5 -29 22 -34 22 -6 0 11 6 22 13 24 6 3 0 6 -14 6 -23 1
-26 -2 -21 -24z"/>
<path d="M2870 2365 c0 -26 15 -34 23 -12 4 10 6 10 6 0 2 -24 21 -13 21 12 0
26 -15 34 -23 13 -4 -10 -6 -10 -6 0 -2 23 -21 12 -21 -13z"/>
<path d="M2960 2365 c0 -19 5 -25 23 -25 18 0 19 2 7 10 -13 9 -13 10 0 10 12
0 13 2 1 9 -11 7 -11 9 0 14 8 3 4 6 -8 6 -18 1 -23 -5 -23 -24z"/>
<path d="M3080 2376 c0 -16 27 -29 41 -20 5 3 9 0 9 -5 0 -6 5 -11 10 -11 6 0
10 11 10 25 0 16 -6 25 -15 25 -8 0 -15 -5 -15 -12 0 -9 -3 -9 -12 0 -16 16
-28 15 -28 -2z"/>
<path d="M3196 2381 c-4 -5 0 -12 6 -14 8 -3 6 -6 -4 -6 -28 -1 -21 -16 8 -17
19 -2 24 2 20 13 -3 8 -6 19 -6 24 0 12 -17 12 -24 0z"/>
<path d="M3271 2381 c-21 -13 -5 -41 24 -41 14 0 25 5 25 11 0 6 -9 8 -20 4
-25 -8 -27 10 -2 24 13 8 14 10 2 11 -8 0 -21 -4 -29 -9z"/>
<path d="M3350 2365 c0 -14 5 -25 10 -25 6 0 10 11 10 25 0 14 -4 25 -10 25
-5 0 -10 -11 -10 -25z"/>
<path d="M3414 2375 c-8 -21 4 -35 29 -34 21 0 21 1 -3 10 -24 10 -24 11 -6
25 18 12 18 14 3 14 -10 0 -20 -7 -23 -15z"/>
<path d="M3514 2374 c3 -8 2 -13 -3 -10 -5 3 -11 0 -14 -7 -3 -8 6 -12 23 -13
26 -1 27 1 18 22 -12 26 -34 34 -24 8z"/>
<path d="M3580 2365 c0 -19 5 -25 23 -24 12 0 16 3 10 6 -7 2 -13 13 -13 24 0
10 -4 19 -10 19 -5 0 -10 -11 -10 -25z"/>
<path d="M3700 2365 c0 -31 20 -33 21 -2 0 12 3 16 6 10 7 -18 23 -16 23 2 0
9 -9 15 -25 15 -20 0 -25 -5 -25 -25z"/>
<path d="M3780 2365 c0 -21 5 -25 28 -24 16 1 20 3 10 6 -10 2 -18 13 -18 24
0 10 -4 19 -10 19 -5 0 -10 -11 -10 -25z"/>
<path d="M3876 2382 c-4 -7 -4 -12 1 -12 4 0 1 -5 -7 -10 -9 -6 -10 -10 -3
-10 6 0 18 -3 27 -6 20 -8 21 6 3 31 -10 12 -16 14 -21 7z"/>
<path d="M3953 2383 c-20 -8 -15 -31 8 -38 11 -4 23 -4 26 -1 4 3 -1 6 -10 6
-22 0 -22 16 1 29 13 8 14 10 2 10 -8 0 -21 -3 -27 -6z"/>
<path d="M4030 2365 c0 -21 5 -25 28 -24 19 1 21 3 8 6 -15 4 -16 7 -5 14 12
7 12 9 -1 9 -13 0 -13 1 0 10 12 8 11 10 -7 10 -18 0 -23 -6 -23 -25z"/>
<path d="M4115 2380 c-3 -6 1 -13 10 -16 13 -6 14 -8 3 -15 -10 -7 -9 -9 4 -9
23 0 33 19 13 26 -13 6 -14 8 -3 15 10 7 9 9 -4 9 -9 0 -20 -5 -23 -10z"/>
</g>
</svg>
